<?xml version="1.0" standalone="no"?>
<!DOCTYPE svg PUBLIC "-//W3C//DTD SVG 20010904//EN"
 "http://www.w3.org/TR/2001/REC-SVG-20010904/DTD/svg10.dtd">
<svg version="1.0" xmlns="http://www.w3.org/2000/svg"
 width="1024.000000pt" height="1024.000000pt" viewBox="0 0 1024.000000 1024.000000"
 preserveAspectRatio="xMidYMid meet">

<g transform="translate(0.000000,1024.000000) scale(0.100000,-0.100000)"
fill="#000000" stroke="none">
<path d="M3349 8569 c-279 -27 -614 -151 -839 -312 -438 -311 -699 -768 -771
-1347 -17 -134 -25 -3115 -9 -3433 16 -343 57 -518 181 -776 112 -235 261
-432 444 -590 288 -249 565 -366 970 -411 71 -8 608 -10 1830 -7 1566 3 1738
5 1810 20 387 81 610 184 863 398 295 251 497 601 576 999 52 259 51 224 51
2070 l0 1725 -23 120 c-57 303 -146 525 -300 756 -222 331 -559 586 -936 708
-148 48 -237 67 -381 81 -133 12 -3335 12 -3466 -1z m3371 -430 c212 -32 388
-95 575 -205 101 -59 129 -80 239 -179 199 -181 341 -403 421 -660 73 -234 68
-107 72 -1845 3 -1017 0 -1612 -6 -1700 -25 -318 -126 -608 -288 -825 -83
-111 -249 -277 -345 -346 -149 -104 -407 -213 -573 -239 -90 -15 -3305 -14
-3410 1 -310 43 -602 192 -820 420 -257 268 -385 567 -425 989 -8 79 -10 598
-7 1680 3 1553 3 1566 25 1675 43 220 132 445 238 602 245 361 637 600 1054
643 118 12 3167 2 3250 -11z"/>
<path d="M5020 7732 c-103 -42 -170 -102 -191 -171 l-11 -37 -104 -17 c-184
-29 -406 -118 -574 -229 -145 -96 -311 -255 -416 -398 -133 -180 -239 -416
-298 -663 -42 -173 -41 -167 -14 -167 126 1 530 174 828 355 268 163 412 267
585 425 83 75 213 178 253 199 25 13 17 20 314 -237 182 -157 334 -265 558
-397 309 -180 675 -341 797 -348 l38 -2 -3 45 c-9 124 -70 328 -146 493 -148
315 -390 587 -674 754 -161 95 -375 168 -516 176 -56 3 -60 5 -69 33 -21 65
-104 150 -176 180 -57 24 -131 26 -181 6z m-646 -593 c51 -40 30 -152 -45
-233 -64 -70 -143 -116 -211 -123 -52 -5 -55 -4 -81 27 -56 66 -25 159 85 249
61 50 161 101 199 101 15 0 38 -9 53 -21z m-430 -544 c39 -36 36 -87 -8 -131
-44 -44 -90 -47 -129 -6 -84 88 47 220 137 137z"/>
<path d="M5067 6800 c-87 -123 -457 -400 -777 -582 -203 -115 -529 -269 -647
-304 -32 -10 -62 -21 -66 -25 -5 -3 6 -35 23 -69 l32 -62 41 5 c23 3 96 12
162 21 66 9 234 29 373 46 229 27 625 87 822 124 67 12 87 12 195 -4 66 -10
212 -33 325 -50 451 -69 533 -80 730 -105 113 -14 222 -30 244 -34 34 -8 39
-7 44 11 3 11 15 41 28 66 13 25 22 47 21 47 -1 1 -63 24 -137 51 -285 103
-738 350 -985 537 -113 86 -313 267 -355 321 -19 25 -37 45 -40 45 -3 0 -18
-17 -33 -39z"/>
<path d="M6895 5922 c-83 -29 -117 -61 -157 -148 -30 -69 -31 -192 -1 -249
107 -202 364 -171 429 52 37 127 -27 282 -141 340 -39 20 -81 21 -130 5z"/>
<path d="M3184 5921 c-104 -25 -173 -127 -174 -257 -1 -143 87 -256 210 -271
129 -15 259 122 260 273 0 48 -6 74 -31 123 -55 109 -153 158 -265 132z m95
-166 c34 -17 55 -62 45 -99 -15 -60 -107 -89 -138 -44 -27 38 -20 95 13 129
34 33 41 35 80 14z"/>
<path d="M5060 5771 c-32 -18 -428 -82 -720 -116 -69 -8 -179 -22 -245 -30
-266 -34 -267 -34 -245 -75 25 -47 264 -119 519 -155 97 -14 264 -41 372 -60
107 -19 210 -35 228 -35 29 0 32 -2 25 -22 -12 -35 -8 -2425 4 -2475 5 -23 31
-76 57 -117 l48 -76 31 44 c17 24 45 61 61 82 l30 37 -4 1269 -4 1268 45 0
c72 0 626 79 773 111 28 6 98 26 157 45 86 28 114 43 143 72 l36 37 -33 13
c-48 20 -155 39 -328 57 -209 21 -278 31 -460 65 -170 32 -421 70 -454 70 -12
0 -28 -4 -36 -9z"/>
<path d="M3516 5371 c-12 -19 -116 -84 -145 -90 l-30 -6 -5 -235 c-4 -244 -17
-354 -57 -480 -43 -136 -143 -285 -270 -403 -57 -53 -79 -81 -79 -98 0 -55
122 -215 240 -316 143 -123 435 -294 661 -386 46 -19 145 -60 219 -91 113 -48
242 -95 260 -96 2 0 -19 24 -47 53 -76 78 -208 246 -304 387 -195 285 -319
580 -386 920 -23 116 -26 152 -30 488 -4 324 -9 383 -27 353z"/>
<path d="M6660 5146 c0 -317 -27 -539 -96 -791 -79 -287 -223 -596 -382 -824
-68 -97 -238 -306 -267 -329 -33 -26 -17 -36 36 -22 63 17 316 123 477 200
392 188 705 436 807 640 l28 54 -34 25 c-63 46 -164 157 -223 244 -68 103
-108 198 -131 317 -17 93 -34 332 -35 505 l0 110 -48 22 c-26 12 -66 34 -89
49 l-43 26 0 -226z"/>
<path d="M3704 5299 c3 -32 8 -168 11 -302 7 -297 18 -395 60 -562 45 -174 81
-267 170 -446 104 -208 148 -275 343 -521 82 -103 283 -305 452 -454 l55 -48
5 110 c9 200 -4 2042 -15 2053 -5 5 -131 28 -278 51 -377 58 -617 106 -721
145 l-89 33 7 -59z"/>
<path d="M6408 5329 c-77 -40 -220 -79 -437 -118 -208 -38 -408 -67 -508 -73
l-43 -3 -4 -195 c-10 -407 -8 -1974 2 -1978 15 -5 149 116 270 243 412 432
674 927 747 1415 17 110 34 427 35 618 0 124 0 124 -62 91z"/>
</g>
</svg>
